{
    "asset" : {
        "copyright" : "Copyright (C) 2022 Pioneer Developers, released under CC-BY-SA 3.0.",
        "generator" : "Khronos glTF Blender I/O v3.2.43",
        "version" : "2.0"
    },
    "scene" : 0,
    "scenes" : [
        {
            "name" : "Scene",
            "nodes" : [
                0,
                3
            ]
        }
    ],
    "nodes" : [
        {
            "name" : "tag_toggle_button",
            "scale" : [
                0.013020546175539494,
                0.00513285119086504,
                0.013020546175539494
            ],
            "translation" : [
                0,
                0.005106696859002113,
                0
            ]
        },
        {
            "mesh" : 0,
            "name" : "button_center"
        },
        {
            "mesh" : 1,
            "name" : "label_button_top",
            "scale" : [
                0.008189513348042965,
                0.00818951427936554,
                0.008189513348042965
            ],
            "translation" : [
                0,
                0.0006622138316743076,
                -0.021846428513526917
            ]
        },
        {
            "children" : [
                1,
                2
            ],
            "mesh" : 2,
            "name" : "button_frame"
        }
    ],
    "animations" : [
        {
            "channels" : [
                {
                    "sampler" : 0,
                    "target" : {
                        "node" : 1,
                        "path" : "translation"
                    }
                }
            ],
            "name" : "button_centerAction",
            "samplers" : [
                {
                    "input" : 15,
                    "interpolation" : "LINEAR",
                    "output" : 16
                }
            ]
        }
    ],
    "materials" : [
        {
            "doubleSided" : true,
            "name" : "default_cockpit.001",
            "pbrMetallicRoughness" : {
                "baseColorFactor" : [
                    0.800000011920929,
                    0.800000011920929,
                    0.800000011920929,
                    1
                ],
                "metallicFactor" : 0,
                "roughnessFactor" : 0.5
            }
        }
    ],
    "meshes" : [
        {
            "name" : "Plane.009",
            "primitives" : [
                {
                    "attributes" : {
                        "POSITION" : 0,
                        "NORMAL" : 1,
                        "TANGENT" : 2,
                        "TEXCOORD_0" : 3
                    },
                    "indices" : 4,
                    "material" : 0
                }
            ]
        },
        {
            "name" : "Text.004",
            "primitives" : [
                {
                    "attributes" : {
                        "POSITION" : 5,
                        "NORMAL" : 6,
                        "TANGENT" : 7,
                        "TEXCOORD_0" : 8
                    },
                    "indices" : 9
                }
            ]
        },
        {
            "name" : "Plane.010",
            "primitives" : [
                {
                    "attributes" : {
                        "POSITION" : 10,
                        "NORMAL" : 11,
                        "TANGENT" : 12,
                        "TEXCOORD_0" : 13
                    },
                    "indices" : 14,
                    "material" : 0
                }
            ]
        }
    ],
    "accessors" : [
        {
            "bufferView" : 0,
            "componentType" : 5126,
            "count" : 56,
            "max" : [
                0.011854990385472775,
                0.009912664070725441,
                0.01175912469625473
            ],
            "min" : [
                -0.011835824698209763,
                0.0007603778503835201,
                -0.011760158464312553
            ],
            "type" : "VEC3"
        },
        {
            "bufferView" : 1,
            "componentType" : 5126,
            "count" : 56,
            "type" : "VEC3"
        },
        {
            "bufferView" : 2,
            "componentType" : 5126,
            "count" : 56,
            "type" : "VEC4"
        },
        {
            "bufferView" : 3,
            "componentType" : 5126,
            "count" : 56,
            "type" : "VEC2"
        },
        {
            "bufferView" : 4,
            "componentType" : 5123,
            "count" : 84,
            "type" : "SCALAR"
        },
        {
            "bufferView" : 5,
            "componentType" : 5126,
            "count" : 401,
            "max" : [
                2.0915002822875977,
                0,
                0.20900000631809235
            ],
            "min" : [
                -2.0914998054504395,
                0,
                -0.49100005626678467
            ],
            "type" : "VEC3"
        },
        {
            "bufferView" : 6,
            "componentType" : 5126,
            "count" : 401,
            "type" : "VEC3"
        },
        {
            "bufferView" : 7,
            "componentType" : 5126,
            "count" : 401,
            "type" : "VEC4"
        },
        {
            "bufferView" : 8,
            "componentType" : 5126,
            "count" : 401,
            "type" : "VEC2"
        },
        {
            "bufferView" : 9,
            "componentType" : 5123,
            "count" : 900,
            "type" : "SCALAR"
        },
        {
            "bufferView" : 10,
            "componentType" : 5126,
            "count" : 144,
            "max" : [
                0.014105659909546375,
                0.0018911368679255247,
                0.01673777401447296
            ],
            "min" : [
                -0.014086615294218063,
                1.7941929399967194e-05,
                -0.016545278951525688
            ],
            "type" : "VEC3"
        },
        {
            "bufferView" : 11,
            "componentType" : 5126,
            "count" : 144,
            "type" : "VEC3"
        },
        {
            "bufferView" : 12,
            "componentType" : 5126,
            "count" : 144,
            "type" : "VEC4"
        },
        {
            "bufferView" : 13,
            "componentType" : 5126,
            "count" : 144,
            "type" : "VEC2"
        },
        {
            "bufferView" : 14,
            "componentType" : 5123,
            "count" : 216,
            "type" : "SCALAR"
        },
        {
            "bufferView" : 15,
            "componentType" : 5126,
            "count" : 9,
            "max" : [
                0.3333333333333333
            ],
            "min" : [
                0
            ],
            "type" : "SCALAR"
        },
        {
            "bufferView" : 16,
            "componentType" : 5126,
            "count" : 9,
            "type" : "VEC3"
        }
    ],
    "bufferViews" : [
        {
            "buffer" : 0,
            "byteLength" : 672,
            "byteOffset" : 0
        },
        {
            "buffer" : 0,
            "byteLength" : 672,
            "byteOffset" : 672
        },
        {
            "buffer" : 0,
            "byteLength" : 896,
            "byteOffset" : 1344
        },
        {
            "buffer" : 0,
            "byteLength" : 448,
            "byteOffset" : 2240
        },
        {
            "buffer" : 0,
            "byteLength" : 168,
            "byteOffset" : 2688
        },
        {
            "buffer" : 0,
            "byteLength" : 4812,
            "byteOffset" : 2856
        },
        {
            "buffer" : 0,
            "byteLength" : 4812,
            "byteOffset" : 7668
        },
        {
            "buffer" : 0,
            "byteLength" : 6416,
            "byteOffset" : 12480
        },
        {
            "buffer" : 0,
            "byteLength" : 3208,
            "byteOffset" : 18896
        },
        {
            "buffer" : 0,
            "byteLength" : 1800,
            "byteOffset" : 22104
        },
        {
            "buffer" : 0,
            "byteLength" : 1728,
            "byteOffset" : 23904
        },
        {
            "buffer" : 0,
            "byteLength" : 1728,
            "byteOffset" : 25632
        },
        {
            "buffer" : 0,
            "byteLength" : 2304,
            "byteOffset" : 27360
        },
        {
            "buffer" : 0,
            "byteLength" : 1152,
            "byteOffset" : 29664
        },
        {
            "buffer" : 0,
            "byteLength" : 432,
            "byteOffset" : 30816
        },
        {
            "buffer" : 0,
            "byteLength" : 36,
            "byteOffset" : 31248
        },
        {
            "buffer" : 0,
            "byteLength" : 108,
            "byteOffset" : 31284
        }
    ],
    "buffers" : [
        {
            "byteLength" : 31392,
            "uri" : "data:application/octet-stream;base64,"
        }
    ]
}
