{
    "asset" : {
        "copyright" : "Copyright (C) 2022 Pioneer Developers, released under CC-BY-SA 3.0.",
        "generator" : "Khronos glTF Blender I/O v3.2.43",
        "version" : "2.0"
    },
    "scene" : 0,
    "scenes" : [
        {
            "name" : "Scene",
            "nodes" : [
                1,
                4
            ]
        }
    ],
    "nodes" : [
        {
            "name" : "tag_toggle_shield",
            "rotation" : [
                -0.9184083938598633,
                0,
                0,
                0.39563366770744324
            ],
            "scale" : [
                0.013790261931717396,
                0.021589675918221474,
                0.003885042853653431
            ],
            "translation" : [
                0,
                0.019490763545036316,
                0.009377343580126762
            ]
        },
        {
            "children" : [
                0
            ],
            "mesh" : 0,
            "name" : "SwitchW_Shield",
            "rotation" : [
                0.3427236080169678,
                0,
                0,
                0.9394362568855286
            ],
            "translation" : [
                0,
                0.005676157772541046,
                -0.022684480994939804
            ]
        },
        {
            "mesh" : 1,
            "name" : "label_bottom_shielded",
            "scale" : [
                0.008189513348042965,
                0.00818951427936554,
                0.008189513348042965
            ],
            "translation" : [
                0,
                0.0006622161017730832,
                0.024527307599782944
            ]
        },
        {
            "mesh" : 2,
            "name" : "label_top_shielded",
            "scale" : [
                0.008189513348042965,
                0.00818951427936554,
                0.008189513348042965
            ],
            "translation" : [
                0,
                0.0006622134242206812,
                -0.031742118299007416
            ]
        },
        {
            "children" : [
                2,
                3
            ],
            "mesh" : 3,
            "name" : "SwitchW_Sides"
        }
    ],
    "animations" : [
        {
            "channels" : [
                {
                    "sampler" : 0,
                    "target" : {
                        "node" : 1,
                        "path" : "rotation"
                    }
                }
            ],
            "name" : "SwitchW_ShieldAction.001",
            "samplers" : [
                {
                    "input" : 18,
                    "interpolation" : "LINEAR",
                    "output" : 19
                }
            ]
        },
        {
            "channels" : [
                {
                    "sampler" : 0,
                    "target" : {
                        "node" : 0,
                        "path" : "translation"
                    }
                },
                {
                    "sampler" : 1,
                    "target" : {
                        "node" : 0,
                        "path" : "rotation"
                    }
                },
                {
                    "sampler" : 2,
                    "target" : {
                        "node" : 0,
                        "path" : "scale"
                    }
                }
            ],
            "name" : "tag_toggle_shield",
            "samplers" : [
                {
                    "input" : 18,
                    "interpolation" : "LINEAR",
                    "output" : 20
                },
                {
                    "input" : 18,
                    "interpolation" : "LINEAR",
                    "output" : 21
                },
                {
                    "input" : 18,
                    "interpolation" : "LINEAR",
                    "output" : 22
                }
            ]
        },
        {
            "channels" : [
                {
                    "sampler" : 0,
                    "target" : {
                        "node" : 4,
                        "path" : "translation"
                    }
                },
                {
                    "sampler" : 1,
                    "target" : {
                        "node" : 4,
                        "path" : "rotation"
                    }
                },
                {
                    "sampler" : 2,
                    "target" : {
                        "node" : 4,
                        "path" : "scale"
                    }
                }
            ],
            "name" : "SwitchW_Sides",
            "samplers" : [
                {
                    "input" : 18,
                    "interpolation" : "LINEAR",
                    "output" : 23
                },
                {
                    "input" : 18,
                    "interpolation" : "LINEAR",
                    "output" : 24
                },
                {
                    "input" : 18,
                    "interpolation" : "LINEAR",
                    "output" : 25
                }
            ]
        },
        {
            "channels" : [
                {
                    "sampler" : 0,
                    "target" : {
                        "node" : 2,
                        "path" : "translation"
                    }
                },
                {
                    "sampler" : 1,
                    "target" : {
                        "node" : 2,
                        "path" : "rotation"
                    }
                },
                {
                    "sampler" : 2,
                    "target" : {
                        "node" : 2,
                        "path" : "scale"
                    }
                }
            ],
            "name" : "label_bottom_shielded",
            "samplers" : [
                {
                    "input" : 18,
                    "interpolation" : "LINEAR",
                    "output" : 26
                },
                {
                    "input" : 18,
                    "interpolation" : "LINEAR",
                    "output" : 27
                },
                {
                    "input" : 18,
                    "interpolation" : "LINEAR",
                    "output" : 28
                }
            ]
        },
        {
            "channels" : [
                {
                    "sampler" : 0,
                    "target" : {
                        "node" : 3,
                        "path" : "translation"
                    }
                },
                {
                    "sampler" : 1,
                    "target" : {
                        "node" : 3,
                        "path" : "rotation"
                    }
                },
                {
                    "sampler" : 2,
                    "target" : {
                        "node" : 3,
                        "path" : "scale"
                    }
                }
            ],
            "name" : "label_top_shielded",
            "samplers" : [
                {
                    "input" : 18,
                    "interpolation" : "LINEAR",
                    "output" : 29
                },
                {
                    "input" : 18,
                    "interpolation" : "LINEAR",
                    "output" : 30
                },
                {
                    "input" : 18,
                    "interpolation" : "LINEAR",
                    "output" : 31
                }
            ]
        }
    ],
    "materials" : [
        {
            "alphaMode" : "BLEND",
            "doubleSided" : true,
            "name" : "default_cockpit_transp",
            "pbrMetallicRoughness" : {
                "baseColorFactor" : [
                    0.800000011920929,
                    0.800000011920929,
                    0.800000011920929,
                    0.30000001192092896
                ],
                "metallicFactor" : 0,
                "roughnessFactor" : 0.5
            }
        },
        {
            "doubleSided" : true,
            "name" : "default_cockpit",
            "pbrMetallicRoughness" : {
                "baseColorFactor" : [
                    0.800000011920929,
                    0.800000011920929,
                    0.800000011920929,
                    1
                ],
                "metallicFactor" : 0,
                "roughnessFactor" : 0.5
            }
        }
    ],
    "meshes" : [
        {
            "name" : "Plane.003",
            "primitives" : [
                {
                    "attributes" : {
                        "POSITION" : 0,
                        "NORMAL" : 1,
                        "TEXCOORD_0" : 2
                    },
                    "indices" : 3,
                    "material" : 0
                }
            ]
        },
        {
            "name" : "Text.003",
            "primitives" : [
                {
                    "attributes" : {
                        "POSITION" : 4,
                        "NORMAL" : 5,
                        "TANGENT" : 6,
                        "TEXCOORD_0" : 7
                    },
                    "indices" : 8
                }
            ]
        },
        {
            "name" : "Text",
            "primitives" : [
                {
                    "attributes" : {
                        "POSITION" : 9,
                        "NORMAL" : 10,
                        "TANGENT" : 11,
                        "TEXCOORD_0" : 12
                    },
                    "indices" : 13
                }
            ]
        },
        {
            "name" : "Plane.004",
            "primitives" : [
                {
                    "attributes" : {
                        "POSITION" : 14,
                        "NORMAL" : 15,
                        "TEXCOORD_0" : 16
                    },
                    "indices" : 17,
                    "material" : 1
                }
            ]
        }
    ],
    "accessors" : [
        {
            "bufferView" : 0,
            "componentType" : 5126,
            "count" : 214,
            "max" : [
                0.014486489817500114,
                0.035280901938676834,
                0.023233555257320404
            ],
            "min" : [
                -0.014486430212855339,
                -0.002804814837872982,
                -0.0026675460394471884
            ],
            "type" : "VEC3"
        },
        {
            "bufferView" : 1,
            "componentType" : 5126,
            "count" : 214,
            "type" : "VEC3"
        },
        {
            "bufferView" : 2,
            "componentType" : 5126,
            "count" : 214,
            "type" : "VEC2"
        },
        {
            "bufferView" : 3,
            "componentType" : 5123,
            "count" : 408,
            "type" : "SCALAR"
        },
        {
            "bufferView" : 4,
            "componentType" : 5126,
            "count" : 163,
            "max" : [
                0.8515000343322754,
                0,
                0.20900000631809235
            ],
            "min" : [
                -0.8355000019073486,
                0,
                -0.49100005626678467
            ],
            "type" : "VEC3"
        },
        {
            "bufferView" : 5,
            "componentType" : 5126,
            "count" : 163,
            "type" : "VEC3"
        },
        {
            "bufferView" : 6,
            "componentType" : 5126,
            "count" : 163,
            "type" : "VEC4"
        },
        {
            "bufferView" : 7,
            "componentType" : 5126,
            "count" : 163,
            "type" : "VEC2"
        },
        {
            "bufferView" : 8,
            "componentType" : 5123,
            "count" : 336,
            "type" : "SCALAR"
        },
        {
            "bufferView" : 9,
            "componentType" : 5126,
            "count" : 341,
            "max" : [
                1.8194999694824219,
                0,
                0.20899999141693115
            ],
            "min" : [
                -1.8555001020431519,
                0,
                -0.49100005626678467
            ],
            "type" : "VEC3"
        },
        {
            "bufferView" : 10,
            "componentType" : 5126,
            "count" : 341,
            "type" : "VEC3"
        },
        {
            "bufferView" : 11,
            "componentType" : 5126,
            "count" : 341,
            "type" : "VEC4"
        },
        {
            "bufferView" : 12,
            "componentType" : 5126,
            "count" : 341,
            "type" : "VEC2"
        },
        {
            "bufferView" : 13,
            "componentType" : 5123,
            "count" : 735,
            "type" : "SCALAR"
        },
        {
            "bufferView" : 14,
            "componentType" : 5126,
            "count" : 224,
            "max" : [
                0.018438849598169327,
                0.011688641272485256,
                0.016347700729966164
            ],
            "min" : [
                -0.018413953483104706,
                -1.1920928955078125e-07,
                -0.027100740000605583
            ],
            "type" : "VEC3"
        },
        {
            "bufferView" : 15,
            "componentType" : 5126,
            "count" : 224,
            "type" : "VEC3"
        },
        {
            "bufferView" : 16,
            "componentType" : 5126,
            "count" : 224,
            "type" : "VEC2"
        },
        {
            "bufferView" : 17,
            "componentType" : 5123,
            "count" : 324,
            "type" : "SCALAR"
        },
        {
            "bufferView" : 18,
            "componentType" : 5126,
            "count" : 11,
            "max" : [
                0.4166666666666667
            ],
            "min" : [
                0
            ],
            "type" : "SCALAR"
        },
        {
            "bufferView" : 19,
            "componentType" : 5126,
            "count" : 11,
            "type" : "VEC4"
        },
        {
            "bufferView" : 20,
            "componentType" : 5126,
            "count" : 11,
            "type" : "VEC3"
        },
        {
            "bufferView" : 21,
            "componentType" : 5126,
            "count" : 11,
            "type" : "VEC4"
        },
        {
            "bufferView" : 22,
            "componentType" : 5126,
            "count" : 11,
            "type" : "VEC3"
        },
        {
            "bufferView" : 23,
            "componentType" : 5126,
            "count" : 11,
            "type" : "VEC3"
        },
        {
            "bufferView" : 24,
            "componentType" : 5126,
            "count" : 11,
            "type" : "VEC4"
        },
        {
            "bufferView" : 25,
            "componentType" : 5126,
            "count" : 11,
            "type" : "VEC3"
        },
        {
            "bufferView" : 26,
            "componentType" : 5126,
            "count" : 11,
            "type" : "VEC3"
        },
        {
            "bufferView" : 27,
            "componentType" : 5126,
            "count" : 11,
            "type" : "VEC4"
        },
        {
            "bufferView" : 28,
            "componentType" : 5126,
            "count" : 11,
            "type" : "VEC3"
        },
        {
            "bufferView" : 29,
            "componentType" : 5126,
            "count" : 11,
            "type" : "VEC3"
        },
        {
            "bufferView" : 30,
            "componentType" : 5126,
            "count" : 11,
            "type" : "VEC4"
        },
        {
            "bufferView" : 31,
            "componentType" : 5126,
            "count" : 11,
            "type" : "VEC3"
        }
    ],
    "bufferViews" : [
        {
            "buffer" : 0,
            "byteLength" : 2568,
            "byteOffset" : 0
        },
        {
            "buffer" : 0,
            "byteLength" : 2568,
            "byteOffset" : 2568
        },
        {
            "buffer" : 0,
            "byteLength" : 1712,
            "byteOffset" : 5136
        },
        {
            "buffer" : 0,
            "byteLength" : 816,
            "byteOffset" : 6848
        },
        {
            "buffer" : 0,
            "byteLength" : 1956,
            "byteOffset" : 7664
        },
        {
            "buffer" : 0,
            "byteLength" : 1956,
            "byteOffset" : 9620
        },
        {
            "buffer" : 0,
            "byteLength" : 2608,
            "byteOffset" : 11576
        },
        {
            "buffer" : 0,
            "byteLength" : 1304,
            "byteOffset" : 14184
        },
        {
            "buffer" : 0,
            "byteLength" : 672,
            "byteOffset" : 15488
        },
        {
            "buffer" : 0,
            "byteLength" : 4092,
            "byteOffset" : 16160
        },
        {
            "buffer" : 0,
            "byteLength" : 4092,
            "byteOffset" : 20252
        },
        {
            "buffer" : 0,
            "byteLength" : 5456,
            "byteOffset" : 24344
        },
        {
            "buffer" : 0,
            "byteLength" : 2728,
            "byteOffset" : 29800
        },
        {
            "buffer" : 0,
            "byteLength" : 1470,
            "byteOffset" : 32528
        },
        {
            "buffer" : 0,
            "byteLength" : 2688,
            "byteOffset" : 34000
        },
        {
            "buffer" : 0,
            "byteLength" : 2688,
            "byteOffset" : 36688
        },
        {
            "buffer" : 0,
            "byteLength" : 1792,
            "byteOffset" : 39376
        },
        {
            "buffer" : 0,
            "byteLength" : 648,
            "byteOffset" : 41168
        },
        {
            "buffer" : 0,
            "byteLength" : 44,
            "byteOffset" : 41816
        },
        {
            "buffer" : 0,
            "byteLength" : 176,
            "byteOffset" : 41860
        },
        {
            "buffer" : 0,
            "byteLength" : 132,
            "byteOffset" : 42036
        },
        {
            "buffer" : 0,
            "byteLength" : 176,
            "byteOffset" : 42168
        },
        {
            "buffer" : 0,
            "byteLength" : 132,
            "byteOffset" : 42344
        },
        {
            "buffer" : 0,
            "byteLength" : 132,
            "byteOffset" : 42476
        },
        {
            "buffer" : 0,
            "byteLength" : 176,
            "byteOffset" : 42608
        },
        {
            "buffer" : 0,
            "byteLength" : 132,
            "byteOffset" : 42784
        },
        {
            "buffer" : 0,
            "byteLength" : 132,
            "byteOffset" : 42916
        },
        {
            "buffer" : 0,
            "byteLength" : 176,
            "byteOffset" : 43048
        },
        {
            "buffer" : 0,
            "byteLength" : 132,
            "byteOffset" : 43224
        },
        {
            "buffer" : 0,
            "byteLength" : 132,
            "byteOffset" : 43356
        },
        {
            "buffer" : 0,
            "byteLength" : 176,
            "byteOffset" : 43488
        },
        {
            "buffer" : 0,
            "byteLength" : 132,
            "byteOffset" : 43664
        }
    ],
    "buffers" : [
        {
            "byteLength" : 43796,
            "uri" : "data:application/octet-stream;base64,"
        }
    ]
}
