{
    "asset" : {
        "copyright" : "Copyright (C) 2022 Pioneer Developers, released under CC-BY-SA 3.0.",
        "generator" : "Khronos glTF Blender I/O v3.2.43",
        "version" : "2.0"
    },
    "scene" : 0,
    "scenes" : [
        {
            "name" : "Scene",
            "nodes" : [
                3,
                4
            ]
        }
    ],
    "nodes" : [
        {
            "mesh" : 0,
            "name" : "label_bottom",
            "scale" : [
                0.008189513348042965,
                0.008189513348042965,
                0.008189513348042965
            ],
            "translation" : [
                0,
                0.0006622160435654223,
                0.02420353703200817
            ]
        },
        {
            "mesh" : 1,
            "name" : "label_top",
            "scale" : [
                0.008189513348042965,
                0.008189513348042965,
                0.008189513348042965
            ],
            "translation" : [
                0,
                0.0006622137734666467,
                -0.021891269832849503
            ]
        },
        {
            "mesh" : 2,
            "name" : "SwitchToggle"
        },
        {
            "children" : [
                0,
                1,
                2
            ],
            "mesh" : 3,
            "name" : "SwitchBase"
        },
        {
            "name" : "tag_toggle",
            "scale" : [
                0.012495371513068676,
                0.0068109952844679356,
                0.016525395214557648
            ],
            "translation" : [
                0,
                0.007390126585960388,
                0
            ]
        }
    ],
    "animations" : [
        {
            "channels" : [
                {
                    "sampler" : 0,
                    "target" : {
                        "node" : 2,
                        "path" : "translation"
                    }
                },
                {
                    "sampler" : 1,
                    "target" : {
                        "node" : 2,
                        "path" : "rotation"
                    }
                },
                {
                    "sampler" : 2,
                    "target" : {
                        "node" : 2,
                        "path" : "scale"
                    }
                }
            ],
            "name" : "SwitchToggleAction",
            "samplers" : [
                {
                    "input" : 20,
                    "interpolation" : "LINEAR",
                    "output" : 21
                },
                {
                    "input" : 20,
                    "interpolation" : "LINEAR",
                    "output" : 22
                },
                {
                    "input" : 20,
                    "interpolation" : "LINEAR",
                    "output" : 23
                }
            ]
        }
    ],
    "materials" : [
        {
            "doubleSided" : true,
            "name" : "default_cockpit",
            "pbrMetallicRoughness" : {
                "baseColorFactor" : [
                    0.800000011920929,
                    0.800000011920929,
                    0.800000011920929,
                    1
                ],
                "metallicFactor" : 0,
                "roughnessFactor" : 0.5
            }
        }
    ],
    "meshes" : [
        {
            "name" : "Text.001",
            "primitives" : [
                {
                    "attributes" : {
                        "POSITION" : 0,
                        "NORMAL" : 1,
                        "TANGENT" : 2,
                        "TEXCOORD_0" : 3
                    },
                    "indices" : 4
                }
            ]
        },
        {
            "name" : "Text.002",
            "primitives" : [
                {
                    "attributes" : {
                        "POSITION" : 5,
                        "NORMAL" : 6,
                        "TANGENT" : 7,
                        "TEXCOORD_0" : 8
                    },
                    "indices" : 9
                }
            ]
        },
        {
            "name" : "Plane.002",
            "primitives" : [
                {
                    "attributes" : {
                        "POSITION" : 10,
                        "NORMAL" : 11,
                        "TANGENT" : 12,
                        "TEXCOORD_0" : 13
                    },
                    "indices" : 14,
                    "material" : 0
                }
            ]
        },
        {
            "name" : "Plane.001",
            "primitives" : [
                {
                    "attributes" : {
                        "POSITION" : 15,
                        "NORMAL" : 16,
                        "TANGENT" : 17,
                        "TEXCOORD_0" : 18
                    },
                    "indices" : 19,
                    "material" : 0
                }
            ]
        }
    ],
    "accessors" : [
        {
            "bufferView" : 0,
            "componentType" : 5126,
            "count" : 163,
            "max" : [
                0.8515000343322754,
                0,
                0.20900000631809235
            ],
            "min" : [
                -0.8355000019073486,
                0,
                -0.49100005626678467
            ],
            "type" : "VEC3"
        },
        {
            "bufferView" : 1,
            "componentType" : 5126,
            "count" : 163,
            "type" : "VEC3"
        },
        {
            "bufferView" : 2,
            "componentType" : 5126,
            "count" : 163,
            "type" : "VEC4"
        },
        {
            "bufferView" : 3,
            "componentType" : 5126,
            "count" : 163,
            "type" : "VEC2"
        },
        {
            "bufferView" : 4,
            "componentType" : 5123,
            "count" : 336,
            "type" : "SCALAR"
        },
        {
            "bufferView" : 5,
            "componentType" : 5126,
            "count" : 340,
            "max" : [
                1.8194999694824219,
                0,
                0.20900000631809235
            ],
            "min" : [
                -1.8555001020431519,
                0,
                -0.49100005626678467
            ],
            "type" : "VEC3"
        },
        {
            "bufferView" : 6,
            "componentType" : 5126,
            "count" : 340,
            "type" : "VEC3"
        },
        {
            "bufferView" : 7,
            "componentType" : 5126,
            "count" : 340,
            "type" : "VEC4"
        },
        {
            "bufferView" : 8,
            "componentType" : 5126,
            "count" : 340,
            "type" : "VEC2"
        },
        {
            "bufferView" : 9,
            "componentType" : 5123,
            "count" : 735,
            "type" : "SCALAR"
        },
        {
            "bufferView" : 10,
            "componentType" : 5126,
            "count" : 198,
            "max" : [
                0.009584546089172363,
                0.015930229797959328,
                0.011146719567477703
            ],
            "min" : [
                -0.009584604762494564,
                -0.007060050033032894,
                -0.0075399866327643394
            ],
            "type" : "VEC3"
        },
        {
            "bufferView" : 11,
            "componentType" : 5126,
            "count" : 198,
            "type" : "VEC3"
        },
        {
            "bufferView" : 12,
            "componentType" : 5126,
            "count" : 198,
            "type" : "VEC4"
        },
        {
            "bufferView" : 13,
            "componentType" : 5126,
            "count" : 198,
            "type" : "VEC2"
        },
        {
            "bufferView" : 14,
            "componentType" : 5123,
            "count" : 402,
            "type" : "SCALAR"
        },
        {
            "bufferView" : 15,
            "componentType" : 5126,
            "count" : 84,
            "max" : [
                0.012266090139746666,
                0.0018731349846348166,
                0.016347700729966164
            ],
            "min" : [
                -0.012266149744391441,
                0,
                -0.016347700729966164
            ],
            "type" : "VEC3"
        },
        {
            "bufferView" : 16,
            "componentType" : 5126,
            "count" : 84,
            "type" : "VEC3"
        },
        {
            "bufferView" : 17,
            "componentType" : 5126,
            "count" : 84,
            "type" : "VEC4"
        },
        {
            "bufferView" : 18,
            "componentType" : 5126,
            "count" : 84,
            "type" : "VEC2"
        },
        {
            "bufferView" : 19,
            "componentType" : 5123,
            "count" : 126,
            "type" : "SCALAR"
        },
        {
            "bufferView" : 20,
            "componentType" : 5126,
            "count" : 11,
            "max" : [
                0.4166666666666667
            ],
            "min" : [
                0
            ],
            "type" : "SCALAR"
        },
        {
            "bufferView" : 21,
            "componentType" : 5126,
            "count" : 11,
            "type" : "VEC3"
        },
        {
            "bufferView" : 22,
            "componentType" : 5126,
            "count" : 11,
            "type" : "VEC4"
        },
        {
            "bufferView" : 23,
            "componentType" : 5126,
            "count" : 11,
            "type" : "VEC3"
        }
    ],
    "bufferViews" : [
        {
            "buffer" : 0,
            "byteLength" : 1956,
            "byteOffset" : 0
        },
        {
            "buffer" : 0,
            "byteLength" : 1956,
            "byteOffset" : 1956
        },
        {
            "buffer" : 0,
            "byteLength" : 2608,
            "byteOffset" : 3912
        },
        {
            "buffer" : 0,
            "byteLength" : 1304,
            "byteOffset" : 6520
        },
        {
            "buffer" : 0,
            "byteLength" : 672,
            "byteOffset" : 7824
        },
        {
            "buffer" : 0,
            "byteLength" : 4080,
            "byteOffset" : 8496
        },
        {
            "buffer" : 0,
            "byteLength" : 4080,
            "byteOffset" : 12576
        },
        {
            "buffer" : 0,
            "byteLength" : 5440,
            "byteOffset" : 16656
        },
        {
            "buffer" : 0,
            "byteLength" : 2720,
            "byteOffset" : 22096
        },
        {
            "buffer" : 0,
            "byteLength" : 1470,
            "byteOffset" : 24816
        },
        {
            "buffer" : 0,
            "byteLength" : 2376,
            "byteOffset" : 26288
        },
        {
            "buffer" : 0,
            "byteLength" : 2376,
            "byteOffset" : 28664
        },
        {
            "buffer" : 0,
            "byteLength" : 3168,
            "byteOffset" : 31040
        },
        {
            "buffer" : 0,
            "byteLength" : 1584,
            "byteOffset" : 34208
        },
        {
            "buffer" : 0,
            "byteLength" : 804,
            "byteOffset" : 35792
        },
        {
            "buffer" : 0,
            "byteLength" : 1008,
            "byteOffset" : 36596
        },
        {
            "buffer" : 0,
            "byteLength" : 1008,
            "byteOffset" : 37604
        },
        {
            "buffer" : 0,
            "byteLength" : 1344,
            "byteOffset" : 38612
        },
        {
            "buffer" : 0,
            "byteLength" : 672,
            "byteOffset" : 39956
        },
        {
            "buffer" : 0,
            "byteLength" : 252,
            "byteOffset" : 40628
        },
        {
            "buffer" : 0,
            "byteLength" : 44,
            "byteOffset" : 40880
        },
        {
            "buffer" : 0,
            "byteLength" : 132,
            "byteOffset" : 40924
        },
        {
            "buffer" : 0,
            "byteLength" : 176,
            "byteOffset" : 41056
        },
        {
            "buffer" : 0,
            "byteLength" : 132,
            "byteOffset" : 41232
        }
    ],
    "buffers" : [
        {
            "byteLength" : 41364,
            "uri" : "data:application/octet-stream;base64,"
        }
    ]
}
