{
    "asset" : {
        "copyright" : "Copyright (C) 2022 Pioneer Developers, released under CC-BY-SA 3.0.",
        "generator" : "Khronos glTF Blender I/O v3.2.43",
        "version" : "2.0"
    },
    "scene" : 0,
    "scenes" : [
        {
            "name" : "Scene",
            "nodes" : [
                0,
                2,
                3,
                4
            ]
        }
    ],
    "nodes" : [
        {
            "name" : "tag_toggle",
            "rotation" : [
                -0.7071068286895752,
                0,
                0,
                0.7071068286895752
            ],
            "scale" : [
                0.007437804713845253,
                0.014890000224113464,
                0.007437999825924635
            ],
            "translation" : [
                0,
                0.007459703832864761,
                0
            ]
        },
        {
            "mesh" : 0,
            "name" : "switch_toggle"
        },
        {
            "children" : [
                1
            ],
            "mesh" : 1,
            "name" : "switch_frame"
        },
        {
            "mesh" : 2,
            "name" : "label_top",
            "scale" : [
                0.008189513348042965,
                0.008189513348042965,
                0.008189513348042965
            ],
            "translation" : [
                0,
                0.0006622131913900375,
                -0.02180938795208931
            ]
        },
        {
            "mesh" : 3,
            "name" : "label_bottom",
            "scale" : [
                0.008189513348042965,
                0.008189513348042965,
                0.008189513348042965
            ],
            "translation" : [
                0,
                0.0006622131913900375,
                0.02412527985870838
            ]
        }
    ],
    "animations" : [
        {
            "channels" : [
                {
                    "sampler" : 0,
                    "target" : {
                        "node" : 1,
                        "path" : "rotation"
                    }
                }
            ],
            "name" : "switch_toggleAction",
            "samplers" : [
                {
                    "input" : 20,
                    "interpolation" : "LINEAR",
                    "output" : 21
                }
            ]
        }
    ],
    "materials" : [
        {
            "doubleSided" : true,
            "name" : "default_cockpit.001",
            "pbrMetallicRoughness" : {
                "baseColorFactor" : [
                    0.800000011920929,
                    0.800000011920929,
                    0.800000011920929,
                    1
                ],
                "metallicFactor" : 0,
                "roughnessFactor" : 0.5
            }
        }
    ],
    "meshes" : [
        {
            "name" : "Plane.012",
            "primitives" : [
                {
                    "attributes" : {
                        "POSITION" : 0,
                        "NORMAL" : 1,
                        "TANGENT" : 2,
                        "TEXCOORD_0" : 3
                    },
                    "indices" : 4,
                    "material" : 0
                }
            ]
        },
        {
            "name" : "Plane.011",
            "primitives" : [
                {
                    "attributes" : {
                        "POSITION" : 5,
                        "NORMAL" : 6,
                        "TANGENT" : 7,
                        "TEXCOORD_0" : 8
                    },
                    "indices" : 9,
                    "material" : 0
                }
            ]
        },
        {
            "name" : "Text.004",
            "primitives" : [
                {
                    "attributes" : {
                        "POSITION" : 10,
                        "NORMAL" : 11,
                        "TANGENT" : 12,
                        "TEXCOORD_0" : 13
                    },
                    "indices" : 14
                }
            ]
        },
        {
            "name" : "Text.001",
            "primitives" : [
                {
                    "attributes" : {
                        "POSITION" : 15,
                        "NORMAL" : 16,
                        "TANGENT" : 17,
                        "TEXCOORD_0" : 18
                    },
                    "indices" : 19
                }
            ]
        }
    ],
    "accessors" : [
        {
            "bufferView" : 0,
            "componentType" : 5126,
            "count" : 210,
            "max" : [
                0.004939299076795578,
                0.015435106121003628,
                0.012042820453643799
            ],
            "min" : [
                -0.004918480291962624,
                -0.007138984743505716,
                -0.0074878958985209465
            ],
            "type" : "VEC3"
        },
        {
            "bufferView" : 1,
            "componentType" : 5126,
            "count" : 210,
            "type" : "VEC3"
        },
        {
            "bufferView" : 2,
            "componentType" : 5126,
            "count" : 210,
            "type" : "VEC4"
        },
        {
            "bufferView" : 3,
            "componentType" : 5126,
            "count" : 210,
            "type" : "VEC2"
        },
        {
            "bufferView" : 4,
            "componentType" : 5123,
            "count" : 402,
            "type" : "SCALAR"
        },
        {
            "bufferView" : 5,
            "componentType" : 5126,
            "count" : 84,
            "max" : [
                0.007624659687280655,
                0.001956075895577669,
                0.016304489225149155
            ],
            "min" : [
                -0.007606411352753639,
                8.287979289889336e-05,
                -0.016401590779423714
            ],
            "type" : "VEC3"
        },
        {
            "bufferView" : 6,
            "componentType" : 5126,
            "count" : 84,
            "type" : "VEC3"
        },
        {
            "bufferView" : 7,
            "componentType" : 5126,
            "count" : 84,
            "type" : "VEC4"
        },
        {
            "bufferView" : 8,
            "componentType" : 5126,
            "count" : 84,
            "type" : "VEC2"
        },
        {
            "bufferView" : 9,
            "componentType" : 5123,
            "count" : 126,
            "type" : "SCALAR"
        },
        {
            "bufferView" : 10,
            "componentType" : 5126,
            "count" : 194,
            "max" : [
                1.084999918937683,
                0,
                0.20900000631809235
            ],
            "min" : [
                -1.0620001554489136,
                0,
                -0.49100005626678467
            ],
            "type" : "VEC3"
        },
        {
            "bufferView" : 11,
            "componentType" : 5126,
            "count" : 194,
            "type" : "VEC3"
        },
        {
            "bufferView" : 12,
            "componentType" : 5126,
            "count" : 194,
            "type" : "VEC4"
        },
        {
            "bufferView" : 13,
            "componentType" : 5126,
            "count" : 194,
            "type" : "VEC2"
        },
        {
            "bufferView" : 14,
            "componentType" : 5123,
            "count" : 411,
            "type" : "SCALAR"
        },
        {
            "bufferView" : 15,
            "componentType" : 5126,
            "count" : 161,
            "max" : [
                0.9015001058578491,
                0,
                0.20900000631809235
            ],
            "min" : [
                -0.8855000138282776,
                0,
                -0.49100005626678467
            ],
            "type" : "VEC3"
        },
        {
            "bufferView" : 16,
            "componentType" : 5126,
            "count" : 161,
            "type" : "VEC3"
        },
        {
            "bufferView" : 17,
            "componentType" : 5126,
            "count" : 161,
            "type" : "VEC4"
        },
        {
            "bufferView" : 18,
            "componentType" : 5126,
            "count" : 161,
            "type" : "VEC2"
        },
        {
            "bufferView" : 19,
            "componentType" : 5123,
            "count" : 336,
            "type" : "SCALAR"
        },
        {
            "bufferView" : 20,
            "componentType" : 5126,
            "count" : 11,
            "max" : [
                0.4166666666666667
            ],
            "min" : [
                0
            ],
            "type" : "SCALAR"
        },
        {
            "bufferView" : 21,
            "componentType" : 5126,
            "count" : 11,
            "type" : "VEC4"
        }
    ],
    "bufferViews" : [
        {
            "buffer" : 0,
            "byteLength" : 2520,
            "byteOffset" : 0
        },
        {
            "buffer" : 0,
            "byteLength" : 2520,
            "byteOffset" : 2520
        },
        {
            "buffer" : 0,
            "byteLength" : 3360,
            "byteOffset" : 5040
        },
        {
            "buffer" : 0,
            "byteLength" : 1680,
            "byteOffset" : 8400
        },
        {
            "buffer" : 0,
            "byteLength" : 804,
            "byteOffset" : 10080
        },
        {
            "buffer" : 0,
            "byteLength" : 1008,
            "byteOffset" : 10884
        },
        {
            "buffer" : 0,
            "byteLength" : 1008,
            "byteOffset" : 11892
        },
        {
            "buffer" : 0,
            "byteLength" : 1344,
            "byteOffset" : 12900
        },
        {
            "buffer" : 0,
            "byteLength" : 672,
            "byteOffset" : 14244
        },
        {
            "buffer" : 0,
            "byteLength" : 252,
            "byteOffset" : 14916
        },
        {
            "buffer" : 0,
            "byteLength" : 2328,
            "byteOffset" : 15168
        },
        {
            "buffer" : 0,
            "byteLength" : 2328,
            "byteOffset" : 17496
        },
        {
            "buffer" : 0,
            "byteLength" : 3104,
            "byteOffset" : 19824
        },
        {
            "buffer" : 0,
            "byteLength" : 1552,
            "byteOffset" : 22928
        },
        {
            "buffer" : 0,
            "byteLength" : 822,
            "byteOffset" : 24480
        },
        {
            "buffer" : 0,
            "byteLength" : 1932,
            "byteOffset" : 25304
        },
        {
            "buffer" : 0,
            "byteLength" : 1932,
            "byteOffset" : 27236
        },
        {
            "buffer" : 0,
            "byteLength" : 2576,
            "byteOffset" : 29168
        },
        {
            "buffer" : 0,
            "byteLength" : 1288,
            "byteOffset" : 31744
        },
        {
            "buffer" : 0,
            "byteLength" : 672,
            "byteOffset" : 33032
        },
        {
            "buffer" : 0,
            "byteLength" : 44,
            "byteOffset" : 33704
        },
        {
            "buffer" : 0,
            "byteLength" : 176,
            "byteOffset" : 33748
        }
    ],
    "buffers" : [
        {
            "byteLength" : 33924,
            "uri" : "data:application/octet-stream;base64,"
        }
    ]
}
